# xmcd CD database file
#
# Track frame offsets:
#	150
#	16687
#	29865
#	43680
#	59445
#	79107
#	95697
#	109662
#	126537
#	143162
#	154527
#	172000
#
# Disc length: 2517 seconds
#
# Revision: 0
# Processed by: cddbd v1.4PL0 Copyright (c) Steve Scherf et al.
# Submitted via: CDex 1.50
#
DISCID=a309d30c
DTITLE=Various Artist - A Tribute To Dixie Chicks
DYEAR=2002
DGENRE=Country
TTITLE0=You Were Mine
TTITLE1=Let 'er Rip
TTITLE2=There's Your Trouble
TTITLE3=Once You've Loved Somebody
TTITLE4=Goodbye Earl
TTITLE5=Loving Arms
TTITLE6=If I Fall You're Going Down With Me
TTITLE7=Ready To Run
TTITLE8=Sin Wagon
TTITLE9=Some Days You Gotta Dance
TTITLE10=Heartbreak Town
TTITLE11=Wide Open Spaces
EXTD=YEAR: 2002
EXTT0=
EXTT1=
EXTT2=
EXTT3=
EXTT4=
EXTT5=
EXTT6=
EXTT7=
EXTT8=
EXTT9=
EXTT10=
EXTT11=
PLAYORDER=
